<mxfile host="app.diagrams.net" modified="2024-03-06T08:04:23.482Z" agent="Mozilla/5.0 (Macintosh; Intel Mac OS X 10_15_7) AppleWebKit/537.36 (KHTML, like Gecko) Chrome/122.0.0.0 Safari/537.36" etag="g9jd8Vb7oxVRhlSlsmCS" version="23.1.5" type="github">
  <diagram name="第 1 页" id="eKyRe6SOPhKilKRQRgve">
    <mxGraphModel dx="320" dy="1622" grid="1" gridSize="10" guides="1" tooltips="1" connect="1" arrows="1" fold="1" page="1" pageScale="1" pageWidth="1169" pageHeight="827" math="0" shadow="0">
      <root>
        <mxCell id="0" />
        <mxCell id="1" parent="0" />
        <mxCell id="fRh1y4jtjNnF4a1EaSi8-22" style="edgeStyle=orthogonalEdgeStyle;rounded=0;orthogonalLoop=1;jettySize=auto;html=1;exitX=1;exitY=0.25;exitDx=0;exitDy=0;entryX=0;entryY=0.25;entryDx=0;entryDy=0;strokeColor=#3399FF;strokeWidth=2;" edge="1" parent="1" source="fRh1y4jtjNnF4a1EaSi8-1" target="fRh1y4jtjNnF4a1EaSi8-2">
          <mxGeometry relative="1" as="geometry" />
        </mxCell>
        <mxCell id="fRh1y4jtjNnF4a1EaSi8-1" value="View (Activity / Fragment)&amp;nbsp;" style="rounded=1;whiteSpace=wrap;html=1;strokeColor=#3399FF;strokeWidth=2;" vertex="1" parent="1">
          <mxGeometry x="40" y="120" width="160" height="80" as="geometry" />
        </mxCell>
        <mxCell id="fRh1y4jtjNnF4a1EaSi8-20" style="edgeStyle=orthogonalEdgeStyle;rounded=0;orthogonalLoop=1;jettySize=auto;html=1;exitX=1;exitY=0.25;exitDx=0;exitDy=0;entryX=0;entryY=0.25;entryDx=0;entryDy=0;strokeColor=#3399FF;strokeWidth=2;" edge="1" parent="1" source="fRh1y4jtjNnF4a1EaSi8-2" target="fRh1y4jtjNnF4a1EaSi8-3">
          <mxGeometry relative="1" as="geometry" />
        </mxCell>
        <mxCell id="fRh1y4jtjNnF4a1EaSi8-23" style="edgeStyle=orthogonalEdgeStyle;rounded=0;orthogonalLoop=1;jettySize=auto;html=1;exitX=0;exitY=0.75;exitDx=0;exitDy=0;entryX=1;entryY=0.75;entryDx=0;entryDy=0;strokeColor=#3399FF;strokeWidth=2;" edge="1" parent="1" source="fRh1y4jtjNnF4a1EaSi8-2" target="fRh1y4jtjNnF4a1EaSi8-1">
          <mxGeometry relative="1" as="geometry" />
        </mxCell>
        <mxCell id="fRh1y4jtjNnF4a1EaSi8-2" value="ViewModel" style="rounded=1;whiteSpace=wrap;html=1;strokeColor=#3399FF;strokeWidth=2;" vertex="1" parent="1">
          <mxGeometry x="240" y="120" width="120" height="80" as="geometry" />
        </mxCell>
        <mxCell id="fRh1y4jtjNnF4a1EaSi8-17" style="edgeStyle=orthogonalEdgeStyle;rounded=0;orthogonalLoop=1;jettySize=auto;html=1;exitX=1;exitY=0.25;exitDx=0;exitDy=0;entryX=0;entryY=0.25;entryDx=0;entryDy=0;strokeColor=#3399FF;strokeWidth=2;" edge="1" parent="1" source="fRh1y4jtjNnF4a1EaSi8-3" target="fRh1y4jtjNnF4a1EaSi8-4">
          <mxGeometry relative="1" as="geometry" />
        </mxCell>
        <mxCell id="fRh1y4jtjNnF4a1EaSi8-21" style="edgeStyle=orthogonalEdgeStyle;rounded=0;orthogonalLoop=1;jettySize=auto;html=1;exitX=0;exitY=0.75;exitDx=0;exitDy=0;entryX=1;entryY=0.75;entryDx=0;entryDy=0;strokeColor=#3399FF;strokeWidth=2;" edge="1" parent="1" source="fRh1y4jtjNnF4a1EaSi8-3" target="fRh1y4jtjNnF4a1EaSi8-2">
          <mxGeometry relative="1" as="geometry" />
        </mxCell>
        <mxCell id="fRh1y4jtjNnF4a1EaSi8-3" value="Domain (Use Cases)" style="rounded=1;whiteSpace=wrap;html=1;strokeColor=#3399FF;strokeWidth=2;" vertex="1" parent="1">
          <mxGeometry x="400" y="120" width="160" height="80" as="geometry" />
        </mxCell>
        <mxCell id="fRh1y4jtjNnF4a1EaSi8-11" style="edgeStyle=orthogonalEdgeStyle;rounded=0;orthogonalLoop=1;jettySize=auto;html=1;exitX=1;exitY=0.5;exitDx=0;exitDy=0;entryX=0;entryY=0.5;entryDx=0;entryDy=0;strokeColor=#3399FF;strokeWidth=2;" edge="1" parent="1" source="fRh1y4jtjNnF4a1EaSi8-4" target="fRh1y4jtjNnF4a1EaSi8-5">
          <mxGeometry relative="1" as="geometry">
            <Array as="points">
              <mxPoint x="760" y="150" />
              <mxPoint x="780" y="150" />
              <mxPoint x="780" y="40" />
            </Array>
          </mxGeometry>
        </mxCell>
        <mxCell id="fRh1y4jtjNnF4a1EaSi8-13" style="edgeStyle=orthogonalEdgeStyle;rounded=0;orthogonalLoop=1;jettySize=auto;html=1;exitX=1;exitY=0.5;exitDx=0;exitDy=0;entryX=0;entryY=0.5;entryDx=0;entryDy=0;strokeColor=#3399FF;strokeWidth=2;" edge="1" parent="1" source="fRh1y4jtjNnF4a1EaSi8-4" target="fRh1y4jtjNnF4a1EaSi8-6">
          <mxGeometry relative="1" as="geometry" />
        </mxCell>
        <mxCell id="fRh1y4jtjNnF4a1EaSi8-15" style="edgeStyle=orthogonalEdgeStyle;rounded=0;orthogonalLoop=1;jettySize=auto;html=1;exitX=1;exitY=0.75;exitDx=0;exitDy=0;entryX=0;entryY=0.5;entryDx=0;entryDy=0;strokeColor=#3399FF;strokeWidth=2;" edge="1" parent="1" source="fRh1y4jtjNnF4a1EaSi8-4" target="fRh1y4jtjNnF4a1EaSi8-7">
          <mxGeometry relative="1" as="geometry">
            <Array as="points">
              <mxPoint x="780" y="180" />
              <mxPoint x="780" y="280" />
            </Array>
          </mxGeometry>
        </mxCell>
        <mxCell id="fRh1y4jtjNnF4a1EaSi8-18" style="edgeStyle=orthogonalEdgeStyle;rounded=0;orthogonalLoop=1;jettySize=auto;html=1;exitX=0;exitY=0.75;exitDx=0;exitDy=0;entryX=1;entryY=0.75;entryDx=0;entryDy=0;strokeColor=#3399FF;strokeWidth=2;" edge="1" parent="1" source="fRh1y4jtjNnF4a1EaSi8-4" target="fRh1y4jtjNnF4a1EaSi8-3">
          <mxGeometry relative="1" as="geometry" />
        </mxCell>
        <mxCell id="fRh1y4jtjNnF4a1EaSi8-4" value="Data Repository" style="rounded=1;whiteSpace=wrap;html=1;strokeColor=#3399FF;strokeWidth=2;" vertex="1" parent="1">
          <mxGeometry x="600" y="120" width="160" height="80" as="geometry" />
        </mxCell>
        <mxCell id="fRh1y4jtjNnF4a1EaSi8-10" style="edgeStyle=orthogonalEdgeStyle;rounded=0;orthogonalLoop=1;jettySize=auto;html=1;exitX=0;exitY=0.25;exitDx=0;exitDy=0;entryX=1;entryY=0.25;entryDx=0;entryDy=0;strokeColor=#3399FF;strokeWidth=2;" edge="1" parent="1" source="fRh1y4jtjNnF4a1EaSi8-5" target="fRh1y4jtjNnF4a1EaSi8-4">
          <mxGeometry relative="1" as="geometry">
            <Array as="points">
              <mxPoint x="810" y="30" />
              <mxPoint x="770" y="30" />
              <mxPoint x="770" y="140" />
            </Array>
          </mxGeometry>
        </mxCell>
        <mxCell id="fRh1y4jtjNnF4a1EaSi8-5" value="Local Data Source" style="rounded=1;whiteSpace=wrap;html=1;strokeColor=#3399FF;strokeWidth=2;" vertex="1" parent="1">
          <mxGeometry x="800" width="120" height="80" as="geometry" />
        </mxCell>
        <mxCell id="fRh1y4jtjNnF4a1EaSi8-14" style="edgeStyle=orthogonalEdgeStyle;rounded=0;orthogonalLoop=1;jettySize=auto;html=1;exitX=0.003;exitY=0.625;exitDx=0;exitDy=0;exitPerimeter=0;strokeColor=#3399FF;strokeWidth=2;" edge="1" parent="1" source="fRh1y4jtjNnF4a1EaSi8-6">
          <mxGeometry relative="1" as="geometry">
            <mxPoint x="760" y="170" as="targetPoint" />
            <Array as="points" />
          </mxGeometry>
        </mxCell>
        <mxCell id="fRh1y4jtjNnF4a1EaSi8-6" value="Local Data Source" style="rounded=1;whiteSpace=wrap;html=1;strokeColor=#3399FF;strokeWidth=2;" vertex="1" parent="1">
          <mxGeometry x="800" y="120" width="120" height="80" as="geometry" />
        </mxCell>
        <mxCell id="fRh1y4jtjNnF4a1EaSi8-7" value="Mock Data Source" style="rounded=1;whiteSpace=wrap;html=1;strokeColor=#3399FF;strokeWidth=2;" vertex="1" parent="1">
          <mxGeometry x="800" y="240" width="120" height="80" as="geometry" />
        </mxCell>
        <mxCell id="fRh1y4jtjNnF4a1EaSi8-16" style="edgeStyle=orthogonalEdgeStyle;rounded=0;orthogonalLoop=1;jettySize=auto;html=1;exitX=-0.001;exitY=0.622;exitDx=0;exitDy=0;entryX=0.999;entryY=0.863;entryDx=0;entryDy=0;entryPerimeter=0;exitPerimeter=0;strokeColor=#3399FF;strokeWidth=2;" edge="1" parent="1" source="fRh1y4jtjNnF4a1EaSi8-7" target="fRh1y4jtjNnF4a1EaSi8-4">
          <mxGeometry relative="1" as="geometry">
            <mxPoint x="810" y="296" as="sourcePoint" />
            <mxPoint x="770" y="190" as="targetPoint" />
            <Array as="points">
              <mxPoint x="771" y="290" />
              <mxPoint x="771" y="190" />
              <mxPoint x="760" y="190" />
            </Array>
          </mxGeometry>
        </mxCell>
        <mxCell id="fRh1y4jtjNnF4a1EaSi8-33" value="" style="group" vertex="1" connectable="0" parent="1">
          <mxGeometry x="350" y="230" width="120" height="70" as="geometry" />
        </mxCell>
        <mxCell id="fRh1y4jtjNnF4a1EaSi8-25" value="" style="endArrow=classic;html=1;rounded=0;strokeColor=#3399FF;strokeWidth=2;" edge="1" parent="fRh1y4jtjNnF4a1EaSi8-33">
          <mxGeometry width="50" height="50" relative="1" as="geometry">
            <mxPoint y="30" as="sourcePoint" />
            <mxPoint x="120" y="30" as="targetPoint" />
          </mxGeometry>
        </mxCell>
        <mxCell id="fRh1y4jtjNnF4a1EaSi8-26" value="" style="endArrow=classic;html=1;rounded=0;strokeColor=#3399FF;strokeWidth=2;" edge="1" parent="fRh1y4jtjNnF4a1EaSi8-33">
          <mxGeometry width="50" height="50" relative="1" as="geometry">
            <mxPoint x="120" y="70" as="sourcePoint" />
            <mxPoint y="70" as="targetPoint" />
          </mxGeometry>
        </mxCell>
        <mxCell id="fRh1y4jtjNnF4a1EaSi8-28" value="Data" style="text;html=1;align=center;verticalAlign=middle;resizable=0;points=[];autosize=1;strokeColor=none;strokeWidth=2;" vertex="1" parent="fRh1y4jtjNnF4a1EaSi8-33">
          <mxGeometry x="30" y="40" width="50" height="30" as="geometry" />
        </mxCell>
        <mxCell id="fRh1y4jtjNnF4a1EaSi8-32" value="Data Request" style="text;html=1;align=center;verticalAlign=middle;resizable=0;points=[];autosize=1;strokeColor=none;strokeWidth=2;" vertex="1" parent="fRh1y4jtjNnF4a1EaSi8-33">
          <mxGeometry x="5" width="100" height="30" as="geometry" />
        </mxCell>
      </root>
    </mxGraphModel>
  </diagram>
</mxfile>
